<svg xmlns="http://www.w3.org/2000/svg" viewBox="0 0 640 640" role="img" aria-labelledby="title desc">
  <title id="title">Mascot Placeholder</title>
  <desc id="desc">A scrapbook-style placeholder card for a future recipe mascot image.</desc>
  <defs>
    <linearGradient id="paper" x1="0" y1="0" x2="0" y2="1">
      <stop offset="0%" stop-color="#fffdf7"/>
      <stop offset="100%" stop-color="#fff5f8"/>
    </linearGradient>
    <pattern id="grid" width="32" height="32" patternUnits="userSpaceOnUse">
      <path d="M 32 0 L 0 0 0 32" fill="none" stroke="#efcfd8" stroke-width="1"/>
    </pattern>
  </defs>
  <rect width="640" height="640" rx="48" fill="url(#paper)"/>
  <rect x="28" y="28" width="584" height="584" rx="40" fill="url(#grid)" opacity="0.7"/>
  <rect x="96" y="72" width="180" height="44" rx="14" fill="#ffe78f" opacity="0.9" transform="rotate(-7 96 72)"/>
  <rect x="384" y="468" width="156" height="38" rx="12" fill="#d9efc5" opacity="0.95" transform="rotate(9 384 468)"/>
  <rect x="120" y="128" width="400" height="360" rx="32" fill="#fffdf9" stroke="#6f5a53" stroke-width="6"/>
  <rect x="146" y="154" width="348" height="256" rx="24" fill="#fff7ef" stroke="#d8c6be" stroke-width="4"/>
  <circle cx="320" cy="270" r="88" fill="#fffefc" stroke="#6f5a53" stroke-width="6"/>
  <ellipse cx="272" cy="174" rx="26" ry="72" fill="#fffefc" stroke="#6f5a53" stroke-width="6" transform="rotate(-10 272 174)"/>
  <ellipse cx="368" cy="174" rx="26" ry="72" fill="#fffefc" stroke="#6f5a53" stroke-width="6" transform="rotate(10 368 174)"/>
  <ellipse cx="272" cy="179" rx="11" ry="46" fill="#ffd9e5" opacity="0.9" transform="rotate(-10 272 179)"/>
  <ellipse cx="368" cy="179" rx="11" ry="46" fill="#ffd9e5" opacity="0.9" transform="rotate(10 368 179)"/>
  <circle cx="287" cy="274" r="7" fill="#6f5a53"/>
  <circle cx="353" cy="274" r="7" fill="#6f5a53"/>
  <ellipse cx="320" cy="316" rx="12" ry="8" fill="#ef8fb1"/>
  <path d="M302 332 Q320 348 338 332" fill="none" stroke="#6f5a53" stroke-width="5" stroke-linecap="round"/>
  <circle cx="246" cy="302" r="12" fill="#ffe1eb" opacity="0.8"/>
  <circle cx="394" cy="302" r="12" fill="#ffe1eb" opacity="0.8"/>
  <path d="M272 402 Q318 372 362 402" fill="none" stroke="#6f5a53" stroke-width="6" stroke-linecap="round"/>
  <path d="M278 392 L252 434" fill="none" stroke="#6f5a53" stroke-width="6" stroke-linecap="round"/>
  <path d="M362 392 L388 434" fill="none" stroke="#6f5a53" stroke-width="6" stroke-linecap="round"/>
  <ellipse cx="432" cy="408" rx="42" ry="34" fill="#fce1b5" stroke="#6f5a53" stroke-width="6"/>
  <path d="M398 408 H466" stroke="#6f5a53" stroke-width="6" stroke-linecap="round"/>
  <path d="M448 382 Q474 382 474 408 Q474 434 448 434" fill="none" stroke="#6f5a53" stroke-width="6"/>
  <path d="M238 432 L218 508" fill="none" stroke="#6f5a53" stroke-width="10" stroke-linecap="round"/>
  <ellipse cx="210" cy="524" rx="20" ry="14" fill="#c89b6f" stroke="#6f5a53" stroke-width="6"/>
  <text x="320" y="560" text-anchor="middle" font-family="Nunito, sans-serif" font-size="24" font-weight="700" fill="#8d756c">
    Add your mascot image as hero-mascot.png
  </text>
</svg>
